<?xml version="1.0" encoding="UTF-8" standalone="no"?>
<!-- Created with Inkscape (http://www.inkscape.org/) -->

<svg
   xmlns:dc="http://purl.org/dc/elements/1.1/"
   xmlns:cc="http://creativecommons.org/ns#"
   xmlns:rdf="http://www.w3.org/1999/02/22-rdf-syntax-ns#"
   xmlns:svg="http://www.w3.org/2000/svg"
   xmlns="http://www.w3.org/2000/svg"
   xmlns:sodipodi="http://sodipodi.sourceforge.net/DTD/sodipodi-0.dtd"
   xmlns:inkscape="http://www.inkscape.org/namespaces/inkscape"
   width="1464.02"
   height="1193.3"
   id="svg3050"
   version="1.1"
   inkscape:version="0.48.0 r9654"
   sodipodi:docname="dc.svg">
  <defs
     id="defs3052" />
  <sodipodi:namedview
     id="base"
     pagecolor="#ffffff"
     bordercolor="#666666"
     borderopacity="1.0"
     inkscape:pageopacity="0.0"
     inkscape:pageshadow="2"
     inkscape:zoom="0.3535534"
     inkscape:cx="1550.5952"
     inkscape:cy="138.46964"
     inkscape:current-layer="layer1"
     inkscape:document-units="px"
     showgrid="false"
     inkscape:window-width="1678"
     inkscape:window-height="972"
     inkscape:window-x="0"
     inkscape:window-y="25"
     inkscape:window-maximized="1"
     fit-margin-top="0"
     fit-margin-left="0"
     fit-margin-right="0"
     fit-margin-bottom="0" />
  <metadata
     id="metadata3055">
    <rdf:RDF>
      <cc:Work
         rdf:about="">
        <dc:format>image/svg+xml</dc:format>
        <dc:type
           rdf:resource="http://purl.org/dc/dcmitype/StillImage" />
        <dc:title />
      </cc:Work>
    </rdf:RDF>
  </metadata>
  <g
     id="layer1"
     inkscape:label="Layer 1"
     inkscape:groupmode="layer"
     transform="translate(-77.21925,18.754173)">
    <path
       style="fill:#ffffff;fill-opacity:1;fill-rule:nonzero;stroke:#ffffff;stroke-width:54.29999923999999822;stroke-linejoin:miter;stroke-miterlimit:4;stroke-dasharray:none"
       d="m 449.05675,51.391764 -278.65625,0.40625 -0.0312,575.218746 217.84375,-0.875 -0.21875,-356.21875 56.53125,-0.25 c 26.45204,-0.11034 79.59344,3.61585 137.8125,20.71875 l 23.90625,8.1875 c -18.6915,23.86673 -51.50582,76.52777 -72.1875,139.375 -15.35257,46.65318 -23.03422,98.06371 -22.625,143.28125 0.96782,106.94036 33.1115,194.77747 94.84375,281.40625 l -21.46875,7.03125 c -35.30719,11.67441 -91.01026,20.33665 -138.59375,20.40625 l -57.90625,0.0937 c -0.13154,-0.76583 -0.2747,-99.0483 -0.40625,-138.6875 l -217.5,-0.1562 0.0312,358.06254 291.4375,-0.4062 c 20.74997,-0.03 65.17261,-3.608 117.625,-13.125 28.03225,-5.0862 63.12337,-14.9495 94.9375,-26.0313 43.85317,-15.2753 80.8199,-33.3912 104.59375,-47 l 5.84375,-3.25 c 40.93854,24.0235 87.72677,44.0575 133.59375,58.2813 68.94314,21.38 147.9854,31.1037 187.0313,31.0937 l 293.7188,-0.062 -0.063,-357.40629 -217.5624,0.25 0.062,139.40625 -62.75,-0.15625 c 0,0 -20.0217,1.02978 -62.4063,-5.28125 -28.3814,-4.22598 -57.4593,-10.90204 -85.43745,-20.6875 l -7.625,-2.84375 3.4375,-4.25 c 16.30085,-20.7276 55.79435,-81.28073 74.93745,-155.78125 10.3329,-40.21278 17.7682,-86.68185 16.4688,-123.4375 -1.5351,-86.69569 -27.6532,-191.25799 -93.5625,-278.375 l -1.46795,-1.563 c 8.76626,-4.12077 42.70275,-14.09336 62.99995,-18.0625 18.2313,-3.56515 60.7633,-11.27933 108.4688,-11.0625 l 46.7501,0.21875 0.094,101.53125 217.75,-0.0312 0.125,-319.499996 -270.4378,-0.0313 c -77.865,-0.009 -175.43618,13.079466 -269.2188,52.999996 -24.02589,10.22712 -53.7112,24.42444 -75.09375,36.8125 -15.84666,-8.9581 -51.83229,-29.96701 -89.6875,-43.59375 C 643.70949,79.58702 556.49363,51.955776 449.05675,51.391764 z m 841.09365,366.218746 -32.25,81 -82.6874,-25 43.4062,75.375 -71.9375,49.53125 86.0625,13 -6,86.75 63.8438,-58.5625 63.4687,59.0625 -5.9063,-87.21875 85.9376,-13.28125 -71.6876,-49.125 43.125,-75.65625 -83.25,25.28125 -32.125,-81.15625 z m -505.6874,5.875 c 0.68176,0.72923 15.74531,18.79846 31,49.6875 11.14792,22.57331 16.25675,41.4592 19.46875,59.09375 1.5666,8.60092 3.12368,16.25751 4.125,27.46875 0.87287,9.77304 1.32741,22.75284 0.96875,35 -4.521,53.4112 -21.82441,97.17347 -54.96875,142.125 l -4,-4.6875 c -11.83864,-17.356 -25.5047,-40.00579 -34.34375,-61.6875 -10.15117,-24.90027 -14.66918,-48.22919 -14.9375,-56 -3.71501,-33.96526 -3.96824,-64.9588 6.53125,-98.8125 13.58328,-43.79684 30.13217,-71.10254 43.4375,-87.4375 l 2.71875,-4.75 z"
       id="path3879"
       inkscape:connector-curvature="0" />
    <path
       d="m 1322.2833,498.75809 83.2369,-25.26551 -43.1283,75.64956 71.6897,49.12083 -85.9383,13.27323 5.918,87.23484 -63.4712,-59.07536 -63.8488,58.58053 5.9885,-86.74696 -86.0556,-13.01022 71.9496,-49.53735 -43.399,-75.36227 82.6687,25 32.2523,-81.02005"
       style="fill:#000000;fill-opacity:1;fill-rule:nonzero;stroke:none"
       id="path24"
       inkscape:connector-curvature="0"
       sodipodi:nodetypes="cccccccccccccc" />
    <path
       d="m 971.053,865.02154 c 27.9781,9.78546 57.0702,16.45213 85.4516,20.67811 42.3846,6.31103 62.3965,5.29949 62.3965,5.29949 l 62.7583,0.13229 -0.082,-139.39152 217.5865,-0.24306 0.062,357.39055 -293.7176,0.076 c -39.0458,0.01 -118.09878,-9.7268 -187.04192,-31.1068 -45.86698,-14.2238 -92.65348,-34.2606 -133.59202,-58.2841 l -5.84568,3.2646 c -23.77385,13.6088 -60.72972,31.7319 -104.58289,47.0072 -31.81413,11.0818 -66.92344,20.916 -94.95569,26.0022 -52.45239,9.517 -96.85963,13.0956 -117.6096,13.1258 l -291.44109,0.4241 -0.0358,-358.06599 217.51001,0.1603 c 0.13155,39.6392 0.25137,137.91477 0.38291,138.6806 l 57.90498,-0.0847 c 47.58349,-0.0696 103.30489,-8.73819 138.61208,-20.4126 l 21.45048,-7.02408 C 544.53182,776.02115 512.38988,688.1671 511.42206,581.22674 511.01284,536.0092 518.70802,484.618 534.06059,437.96482 554.74227,375.11759 587.54807,322.44634 606.23957,298.57961 l -23.90993,-8.18425 C 524.11058,273.29246 470.96861,269.57765 444.51657,269.68799 l -56.51522,0.23576 0.19745,356.21255 -217.82955,0.87381 0.0442,-575.19926 278.63082,-0.419086 c 107.43688,0.564012 194.65088,28.179676 245.93564,46.640666 37.85521,13.62674 73.8566,34.65824 89.70326,43.61634 21.38255,-12.38806 51.07084,-26.59282 75.09673,-36.81994 93.78262,-39.92053 191.3516,-53.005834 269.2165,-52.996836 l 270.4265,0.03125 -0.1158,319.483016 -217.7453,0.0459 -0.1063,-101.54054 -46.7447,-0.21246 c -47.7055,-0.21683 -90.2398,7.49889 -108.471,11.06404 -20.2972,3.96914 -54.21875,13.95218 -62.98501,18.07295 l 1.44456,1.55835 c 65.90935,87.11701 92.05165,191.67802 93.58675,278.37371 1.2994,36.75565 -6.1584,83.23218 -16.4912,123.44496 -19.1432,74.50052 -58.63388,135.05308 -74.93473,155.78068 l -3.4331,4.23705 z M 781.73308,428.24688 c -13.30533,16.33496 -29.85567,43.62091 -43.43895,87.41775 -10.49949,33.8537 -10.2195,64.85114 -6.50449,98.8164 0.26832,7.77081 4.764,31.09337 14.91517,55.99364 8.83905,21.68171 22.52175,44.3459 34.36039,61.7019 l 4.00086,4.6946 c 33.14434,-44.95153 50.42939,-88.73214 54.95039,-142.14334 0.35866,-12.24716 -0.0852,-25.20552 -0.95807,-34.97856 -1.00132,-11.21124 -2.56721,-18.88237 -4.13381,-27.48329 -3.212,-17.63455 -8.2992,-36.5183 -19.44712,-59.09161 -15.25469,-30.88904 -30.33389,-48.96013 -31.01565,-49.68936"
       style="fill:#000000;fill-opacity:1;fill-rule:nonzero;stroke:none"
       id="path22"
       inkscape:connector-curvature="0"
       sodipodi:nodetypes="cscccccssccsssccccsccssccscccccscssccccsscccsccccscscccsssc" />
  </g>
</svg>
