<?xml version="1.0" encoding="utf-8"?>
<svg width="18.522" height="8.233" viewBox="0 0 18.522 8.233" xmlns="http://www.w3.org/2000/svg">
  <g transform="translate(18.522 -137.027) rotate(90)">
    <path d="M145.174,4.223,141.368.107A.351.351,0,0,0,141.111,0a.339.339,0,0,0-.247.107l-3.752,4.116a.344.344,0,0,0-.054.375.311.311,0,0,0,.311.2h2.4V18.179a.33.33,0,0,0,.343.343h2.058a.33.33,0,0,0,.343-.343V4.8h2.4a.323.323,0,0,0,.311-.2A.344.344,0,0,0,145.174,4.223Z" style="fill: rgb(24, 24, 24);"/>
  </g>
</svg>